<svg id="Capa_1" data-name="Capa 1" xmlns="http://www.w3.org/2000/svg" viewBox="0 0 500 500"><defs><style>.cls-1,.cls-3{fill:none;}.cls-2,.cls-5{fill:#080804;}.cls-3,.cls-4,.cls-5{stroke:#000;stroke-miterlimit:10;}.cls-4,.cls-5{stroke-width:2px;}</style></defs><path class="cls-1" d="M0,0V500H500V0Z"/><path class="cls-2" d="M201,140c-3.16-5.14-6.49-10.09-10-15h-2v17h2V129c3.42,4.45,6.09,10.11,11,13V125C200.12,129.47,201,135.18,201,140Z"/><path class="cls-2" d="M177,141v-8h7c-2.33-1-4.46-1-7-1v-6h8c-2.89-1.21-5.87-1-9-1v17h10C183.11,140.79,180.13,141,177,141Z"/><path class="cls-2" d="M200.32,84.76c-4.46,2-1,9.13,3.54,7.58C209.3,90.48,205.52,82.38,200.32,84.76Z"/><path class="cls-2" d="M181.6,91c-4,3.07.53,9.94,5.08,6.94C191.49,94.8,185.93,87.7,181.6,91Z"/><path class="cls-2" d="M219.15,80.05c-5.23,2.92-.4,10.67,4.42,7.73C228.14,85,224.15,77.25,219.15,80.05Z"/><path class="cls-2" d="M228,126c-2.17,5.29-4.67,10.41-6,16,3.6-4.2,5.23-5.93,11-6l1,5c1.31-4.74-2.46-10.46-4-15Zm-2,9,2-7a21.26,21.26,0,0,1,4,7Z"/><path class="cls-2" d="M214,126c5.93,7.18,3.59,14.13-6,15V126h5a14.81,14.81,0,0,0-6-1v17c3.58,0,7.78.17,10.57-2.51C222.41,134.82,219.46,128,214,126Z"/><path class="cls-2" d="M282.77,84a19.16,19.16,0,0,0,.23-4,17.1,17.1,0,0,0-4-.57C268.21,80.38,279.94,95.41,282.77,84Z"/><path class="cls-2" d="M133.57,121.88c-4.85,2.51-.58,10.43,4.28,8C143.55,127.11,138.87,119.14,133.57,121.88Z"/><path class="cls-2" d="M300.39,91.25c3.67-3.58-2-9.17-5.79-6.22C290.39,88.29,296.27,95.29,300.39,91.25Z"/><path class="cls-2" d="M165.13,99.05c-4.81,2.71-1.36,10.28,3.64,7.71S170.3,96.14,165.13,99.05Z"/><path class="cls-2" d="M148.32,110c-5,3.17.71,10,5.36,6.93C158.49,113.82,152.81,107.19,148.32,110Z"/><path class="cls-2" d="M170,142c1.88-4.49,1.88-12.51,0-17Z"/><path class="cls-2" d="M155,125a14.81,14.81,0,0,0,6,1v16c2-4.72,1-10.91,1-16h6C164,124.34,159.26,125,155,125Z"/><path class="cls-2" d="M256,139c-3.36-4.37-6.86-8.91-9-14h-3v17h2V128c3.06,5,5.85,11,11,14V125C255.23,129.22,256,134.46,256,139Z"/><path class="cls-2" d="M313.32,91.05c-4.57,2.83-.43,10.08,4.36,6.92C322.05,95.08,317.81,88.27,313.32,91.05Z"/><path class="cls-2" d="M330.43,99.07c-4.57,2.82-.74,11,4.25,7.88C339.1,104.22,335.12,96.18,330.43,99.07Z"/><path class="cls-2" d="M325.33,126.67c-.05,0-.11,1.11.34.66C325.72,127.28,325.78,126.22,325.33,126.67Z"/><path class="cls-2" d="M336,141c0-5.09,1-11.28-1-16v17h9C341.39,140.9,338.84,141,336,141Z"/><path class="cls-2" d="M346.43,110c-4.82,3.28.52,10.07,5.13,6.94S350.92,107,346.43,110Z"/><path class="cls-2" d="M361.43,122.05c-4.41,2.82-.58,10.76,4.26,7.88C370.25,127.21,366.28,119,361.43,122.05Z"/><path class="cls-2" d="M307,133v-7c4.73.53,7.16,2,7,7,6.8-6-3.63-8-8-8v17c1.1-2.61,1-5.16,1-8,5.32.86,5.92,5.33,10,8C315.33,136.33,313.11,133.2,307,133Z"/><path class="cls-2" d="M257.3,78.05c-5,3.19.45,10.58,5.1,6.92C266.25,81.94,261.55,75.31,257.3,78.05Z"/><path class="cls-2" d="M266,126c-2.23,5.35-5.13,10.2-6,16a12,12,0,0,0,3-6h8l1,6c1.72-5-2.19-11.31-4-16Zm-2,9,2-7a12.06,12.06,0,0,1,3,7Z"/><path class="cls-2" d="M245,78a24.79,24.79,0,0,0-4-.66c-10.78,0-.08,15.37,3.7,4.65A14.08,14.08,0,0,0,245,78Z"/><path class="cls-2" d="M300,125c0,3.62.85,8.62-1,11.89-1.76,3.06-5.81,4-7.94.75-2.33-3.55-.4-8.75-2-12.64,0,4.14-1.28,11,1.18,14.57s8.43,2.85,10.39-.72c2.17-4,1.43-9.5,1.43-13.85Z"/><path class="cls-2" d="M274,125a14.81,14.81,0,0,0,6,1v16c2-4.72,1-10.91,1-16h5C282.3,124.45,278,125,274,125Z"/><path class="cls-2" d="M98.32,168c-4.83,3.16.79,9.62,5.36,6.64,4.94-3.23-.87-9.57-5.36-6.64m298-.28c-4.71,2.3-.14,9.46,4.47,7.49C406.66,172.72,401.69,165.12,396.32,167.75Z"/><path class="cls-2" d="M80.74,222c-3.79,3,.15,10.78,4.83,7.77,4.94-3.17-.18-11.43-4.83-7.77M421,222a17.1,17.1,0,0,0-4-.57c-11,1,1.38,16.43,3.87,4.59A21.61,21.61,0,0,0,421,222Z"/><path class="cls-2" d="M79.57,241.05c-4.54,2.94-.95,10.72,4.11,7.73,4.51-2.67.6-10.78-4.11-7.73m337.57-.12c-5.09,1.5-2.72,9.94,2.52,8.5s3-10.14-2.52-8.5M142,285c15.18-2,23-28.24,6.91-34.73-9.06-3.64-14.73,2.92-19.4,9.73-1.53,2.23-3.56,6.63-6.59,7.08s-4.54-3.65-4.15-6.08c.73-4.56,4.25-7.42,8.23-9l-2-8c-16,1.08-22.35,31.25-4,33.7,8.64,1.15,12.95-7.15,17.27-13,1.82-2.46,5-6.54,8.41-4.06,7.18,5.24-3.49,12.69-5.55,16.79C140,279.74,141.41,282.73,142,285Z"/><path class="cls-2" d="M80.15,260.14c-5.13,2.38-1.7,10.26,3.51,8.21,5.4-2.12,1.71-10.65-3.51-8.21m335.17-.07c-4.53,2.69-.4,10.7,4.37,7.86s.49-10.74-4.37-7.86m-333,20c-4.38,2.88.07,9.28,4.53,6.9,5.41-2.9.33-10.09-4.53-6.9m330.83-.27c-5.25,2.14-1.48,9.7,3.51,7.62C422,285.13,418.57,277.56,413.15,279.76Z"/><path class="cls-2" d="M88.14,297.8c-5,1.8-2.43,10.12,2.73,8.49s2.71-10.43-2.73-8.49m320,.08c-5.42,2.34-1.35,10.53,3.7,8C417.15,303.29,413.73,295.46,408.15,297.88Z"/><path class="cls-2" d="M94.32,316.05c-4.89,3,.74,10.27,5.08,6.92,3.86-3-.84-9.56-5.08-6.92m306.42,0c-3.87,3.05.4,10.87,4.94,7.32S405.18,312.54,400.74,316Z"/><path class="cls-2" d="M102,341a21.75,21.75,0,0,0,4-.15c11.51-2.43-3.22-14.74-4.52-3.87a15.58,15.58,0,0,0,.49,4m290.15-7.93c-5.42,2.88-.34,10.07,4.53,6.9C401.2,337,396.7,330.66,392.15,333.07Z"/><path class="cls-2" d="M216,205.21c8.86-1.71,19.69-1.26,26.79-7.74,8.32-7.6,2.8-20.13-7.79-20.47,6.52-6.54,6.84-17.61-4-19.66-8-1.51-17,2.65-25,3.66l8,42c-7.87-10.37-13.32-24.68-22.72-33.64-3-2.87-8.13-.49-9.68,3-1.21,2.71-.7,6.79-.43,9.67.45,4.72.83,9.25.83,14-6.34-2.34-15.11-10.12-22-9.29-3,.37-5.64,2.58-8,4.29,7.23,13,17.63,24.54,24,38,3-.8,5.32-2.47,8-4-3.28-9-10.07-16.84-15-25,4.61,2.42,13.4,9.36,18.85,7.35,2.72-1,3-3.84,3.13-6.35a99.58,99.58,0,0,0-1-17c5.56,8.18,11,16.49,16,25C209.4,207.92,212.48,205.89,216,205.21Zm17.85-21.47c3,1.36,4.14,5.81,1.55,8.17-3.07,2.8-9.46,3.28-13.4,4.09-.19-4.12-1.4-7.94-2-12C224.23,183.91,229.86,182,233.85,183.74Zm-5.28-17.14c6.8,3.45-3.2,11.05-8.14,8.78-2.7-1.24-3.48-5.85-4.43-8.38C219.68,166.71,225.09,164.84,228.57,166.6Z"/><path class="cls-2" d="M315.26,174c-3.29-8.53-15.93-12.82-24.26-10.43-20.52,5.89-23,45.8,2,46.41a22.27,22.27,0,0,0,7-.63C312.11,205.68,319.67,185.47,315.26,174Zm-17.44,26.54c-5.27,3-12.08.45-13.42-5.56-1.46-6.52,2.54-18.72,8.64-21.95,4.64-2.45,12.37-.44,13.65,5.06C308.22,184.63,303.72,197.2,297.82,200.54Z"/><path class="cls-2" d="M125.42,143c4.77-3.28-.52-9.83-5.1-6.93C115.47,139.12,120.89,146.09,125.42,143Z"/><path class="cls-2" d="M271,195h-7a185.17,185.17,0,0,0,3-31h7v-8l-22-1v7h6c-.45,10.36-2.79,20.62-3,31h-7v7a138.54,138.54,0,0,0,22,2Z"/><path class="cls-2" d="M387.15,151.14c-5.19,2.42-1.6,10.51,3.63,7.64C395.6,156.13,392.08,148.84,387.15,151.14Z"/><path class="cls-2" d="M108.57,150.9c-4.78,2.34-1.12,10.51,3.9,8.2C118.32,156.4,114.1,148.2,108.57,150.9Z"/><path class="cls-2" d="M378.85,143.38c5.51-2.15,1.63-9.78-3.7-7.62C369.64,138,373.64,145.41,378.85,143.38Z"/><path class="cls-2" d="M331,142c1.42-4.15-1.56-8.09-3-12a11,11,0,0,0,0,5h-5a11,11,0,0,0,0-5,43,43,0,0,0-4,12C323.42,136.83,327.7,133.87,331,142Z"/><path class="cls-2" d="M85.15,203.09c-5,2.48-1.34,10.22,3.62,7.67S90.09,200.63,85.15,203.09Z"/><path class="cls-2" d="M91.23,184.8c-5.41,2-1.66,9.66,3.54,7.58C100.17,190.21,96.34,182.86,91.23,184.8Z"/><path class="cls-2" d="M404.32,185c-5,3.23.7,10,5.36,6.94C414.65,188.74,409,182,404.32,185Z"/><path class="cls-2" d="M410.32,203.07c-4.64,2.74-.65,10.82,4.36,7.73C419.28,208,415.13,200.23,410.32,203.07Z"/><path class="cls-2" d="M378.58,243.77C365.07,238.69,362.06,255,362,264c0,3.07.11,8.52-4,9.08-9.75,1.3-4.37-14.19-6.09-17.78-1.57-3.26-7.46-4.32-7.52-8.34-.05-3,3.4-4.83,5.61-6.18,6.34-3.84,12.17-8.93,19-11.78l2,5,6-3c-2.08-7.06-6.76-13.08-11-19-6,2.11-5,5-3,10-6.55,1-12.46,6.83-18,10.32-4.3,2.7-7.11,4.66-11,.68-11.16,3.43.51,14.71,4,21a38.83,38.83,0,0,0,7-2,29.34,29.34,0,0,0,1.27,24c3.9,7.51,12.24,10.4,19.63,5.56,6.18-4.06,6.1-10.92,6.1-17.52,0-2.62-.57-6.38,1-8.66,2.48-3.55,5.75.18,7,2.68,2.22,4.49.52,7.64-1,12,1.79,1.13,4.53,3.57,6.83,3.21,4.51-.69,4.3-9,4-12.21C389.11,253.45,386.15,246.62,378.58,243.77Z"/><path class="cls-2" d="M338.58,225c4.37-6.68.68-13-3-19-1.48-2.4-4.48-5.79-3.75-8.85.81-3.43,4.8-2.74,7-1.25,3.93,2.66,5,6.65,5.17,11.1a39.48,39.48,0,0,1,9,1c0-4.14,0-8.28-2.09-12-5.18-9.11-19.72-16.32-27.27-5.91-4.64,6.4-1.33,13,2.37,18.91,1.78,2.83,4.56,6.36,3.34,9.94-1.34,4-5.28,3.72-8.06,1.48-4.12-3.32-5.23-7.4-5.29-12.42h-9c0,3.82,0,7.42,1.83,10.91C314.47,229.85,330.31,237.59,338.58,225Z"/><path class="cls-2" d="M293,283c-4,2.26-7.21,5.77-11,8.43-8.6,6-17,10.67-25,17.57,1.27-3.39,1.16-8.76,3.6-11.45,2.7-3,8.37-2.95,10.22-6.83,1.28-2.68-1.83-3.5-3.82-3-2.88.78-4.54,2.85-6,5.24-1.17-4-1-7.89-1-12,17.48-.42,20.88-23,21-37-3.05,1.71-4.69,4.36-7.07,6.91-6,6.48-12.44,12.75-12.93,22.09-2.89-9.5-.6-19.23-1-29-.26-5.82-2.11-11.68-4.39-17-1.94-4.54-4.27-9.39-8.57-12-2.34,12.4-3.43,25.1,1.79,37,2.07,4.75,6.41,8.14,8.18,13,1.61,4.42.94,9.42,2,14-3.87-3.75-6.58-8.72-9.89-13C243,258.06,235,249.09,227,243c.85,19.5,9.7,40.48,32,41l-1,8c-3.66-2.49-6.58-5.11-11-6,1.06,6.79,7.26,6.12,9.69,11.27,2.59,5.51-2.22,14.94-2.69,20.73-4.07-4.46-5.89-10.51-10.1-15-7.63-8-19.55-11.09-29.9-14,1.54,4.55,6.37,6.63,9.57,10.09C231.77,308,238.74,321.56,252,323l-1,11c-3.58-3-6.43-5.64-11-7,.93,5.88,5.79,6.85,8.68,11.46,2.19,3.49,2,9.5,2.32,13.54-8.51-10.11-18.43-13-30-18.1-4.52-2-8.47-5-13-6.9,1.86,4,4.93,6.83,7.65,10.28,6.08,7.75,11.5,15.3,20.35,20.2,4.77,2.65,13.59,2.46,17.27,6.12,1.66,1.64,2.16,4.32,3.07,6.4,1.94,4.47,4.39,8.7,6.66,13-3.09-1-6.61-3-9.94-2.75-1.91.13-4.51,1.85-2.4,3.76,4.51,4.09,13,3.66,17.88,7.58,5.8,4.68,8,14,15.46,16.41-3.25-6.36-11.48-11.93-12.94-19-1-4.81,2.29-11.15,2.94-16-5.14,1.91-6.71,5.74-7,11a73.08,73.08,0,0,1-4.57-7c-8.53-15,13.89-18,21-27.18,6.19-8.07,6.6-19.11,6.6-28.82-4.58,2.47-7.12,7.27-11,10.7-6.9,6.07-15.51,10.88-19.93,19.3-1.79,3.4-2.14,7.31-3.05,11-1.82-4.82-4.87-12.86-2.77-17.91,2.18-5.25,7.06-8.34,8.77-14.09-4.39,1.46-7.37,3.59-9,8-1.32-6.09,1.22-12.85,2-19C277.54,318.81,290.1,304.57,293,283Zm-18-30c.66,7-8.33,18.13-13,23C262.83,266.5,268.51,259.54,275,253Zm2,2c2.85,9.63-6.18,22.18-15,25C266.32,271.31,272.71,263.77,277,255Zm-22,4c-6.68-12.07-8-21.36-8-35,4.7,6.59,5.71,17.18,7.42,25C255.18,252.47,256.32,255.62,255,259Zm2-3c-.54-12.32-6-23.94-8-36C256.24,228,261.35,245.62,257,256Zm-2,22c-9.81-4.15-17.95-15.37-22-25C242.15,257.63,249.71,269.42,255,278Zm-25-27c4.58,6,7.37,13.12,12.44,19,4,4.65,9.37,7.65,13.56,12C239.61,278.21,232.18,267.18,230,251Zm57,40c-6.43,9.52-18.46,17.63-29,22C263.35,302.55,276.45,295.37,287,291Zm1,0c1.12,3.8-.95,7.63-2.8,11-4.55,8.29-18.22,18.07-28.2,14C267.74,309.38,282,302.59,288,291Zm-61,9c8.6,3.83,16.77,12.23,22,20C239.61,317.23,232.38,307.82,227,300Zm22,18c-7.1-9.32-16.34-15.44-25-23,8.47.87,16.48,6.31,21.59,13C247.77,310.86,249.86,314.44,249,318Zm-29,21c4.47,2.49,9.89,5.24,15.12,8.33A77.14,77.14,0,0,1,220,336c11.51,2.46,25.18,8.61,30,20-4.16-2.52-8.72-5-13.21-7.67,5.6,3.43,10.82,7.28,14.21,11.67C238.7,358.93,225.1,350.43,220,339Zm67-11c5.49,17.85-15.22,28.24-27,36C264.43,349,280.81,342.15,287,328Zm-4,2c.56,4.17-3.23,7.2-6,10-3.54,3.57-7.67,6.67-11,10.46C263,354,261,358.4,258,362,259.53,347.06,273.38,339.6,283,330Z"/><path class="cls-2" d="M144,201h-2c-1.33,2.12-3.26,4.41-3.47,7-.52,6.34,6.26,13.26,8.47,19-9.42-1.83-21.09-6.74-25,5,6.76.29,13.37,1.95,20,3.2,3.29.62,6.91.56,10,1.94,5.73,2.55,9.74,7.42,16,8.86l4-8C156.91,230.34,150.85,215.68,144,201Z"/><path class="cls-2" d="M114.32,349.07c-4.7,2.78-.67,9.72,4.25,7.32s.45-10.09-4.25-7.32M388,349a23.89,23.89,0,0,0-4-.65c-10.42,0-.38,15.18,3.59,4.64a13.77,13.77,0,0,0,.43-4M127.15,363.09c-5,2.46-1.44,10,3.57,8.11,5.28-2,1.62-10.69-3.57-8.11M375,363a26.66,26.66,0,0,0-5,.23c-9.85,2,3,15.07,5.37,3.79a12.71,12.71,0,0,0-.4-4M142.13,375.93c-5.13,1.54-2.59,10.26,2.65,8.41,4.94-1.75,2.64-10-2.65-8.41M353.6,377c-4.19,3.32,1.64,10.21,5.8,6.22s-1.67-9.49-5.8-6.22M156.33,388c-4.2,2.81,0,9.43,4.53,6.92,5.53-3.07.35-10.17-4.53-6.92m182,0c-4.66,3.06.62,10,5.11,6.94,4.91-3.37-.38-10-5.11-6.94m-165,9c-4.46,2.65-.5,10.93,4.25,7.88,4.52-2.9.69-10.81-4.25-7.88m149,0c-4.56,2.73-.66,10.87,4.26,7.73,4.41-2.82.51-10.57-4.26-7.73M190.6,405c-4,3.07.53,9.94,5.08,6.94,4.81-3.17-.75-10.27-5.08-6.94m113.72-.27c-4.81,2.27-.33,10.08,4.36,7.19s.53-9.51-4.36-7.19m-94.1,5c-4.91,1.82-2.56,10.13,2.65,8.49s2.72-10.47-2.65-8.49m75.43.23c-4.68,3.39.28,11.09,5,7.35,4.52-3.56-.36-10.73-5-7.35m-57.33,3c-4.61,2.83-.56,10.58,4.53,7.75,5.44-3,.37-10.77-4.53-7.75M266,422a10.53,10.53,0,0,0,4-.6c10.42-5.31-6.69-13.76-5.42-3.7A22,22,0,0,0,266,422m-19.25-7c-4,3.27,1.89,9.59,5.93,6.35C257.45,417.54,250.79,411.7,246.75,415Z"/><path class="cls-3" d="M208,126s5.76-2.1,8.89,2.81"/><path class="cls-4" d="M325.5,127a37.94,37.94,0,0,0-4.57,11"/><path class="cls-4" d="M325.19,126.56a37.94,37.94,0,0,1,4.57,11"/><path class="cls-5" d="M315.19,129.09a11.64,11.64,0,0,1-4.13,5.91"/></svg>