<svg id="Capa_1" data-name="Capa 1" xmlns="http://www.w3.org/2000/svg" viewBox="0 0 500 500"><defs><style>.cls-1{fill:none;}.cls-2{fill:#080804;}</style></defs><path class="cls-1" d="M0,0V500H500V0Z"/><path class="cls-2" d="M296.27,266.5c-4.31-7.42-10.93-13.34-16-20.36C268.92,230.21,260,214.63,247,199.85c6.35,2.29,16.38,2,21.45,6.47,5.66,5,5.68,15.56,13,18.94,5,2.33,6.49-3.49,5.52-7.2-1.52-5.36-5.42-8.41-9.91-11.09,7.44-2.27,14.7-2,22.38-2.12,1.15,32.62,43.37,38.49,69.51,38.42-3.26-5.66-8.24-8.67-13.05-13.06-12.22-11.06-24.06-23-41.51-23.66,17.67-5.6,35.88-1.53,54.11-2.49,10.86-.6,21.76-4.18,31.64-8.55,8.44-3.72,17.44-8.17,22.22-16.25-23.19-4.11-46.92-5.87-69,4.12-8.82,4-15.06,12.14-24.09,15.55-8.22,3.1-17.56,1.95-26.09,4,6.92-7.3,16.14-12.47,24.06-18.74,14.61-11.59,31.19-26.71,42.39-41.78-36.39,2-75.36,19-75.86,60.61l-15-1.7c4.58-6.88,9.4-12.39,11-20.66C277,182.81,278.42,194.37,268.86,199c-10.23,4.95-27.94-3.83-38.75-4.58,8.23-7.7,19.49-11.22,27.78-19.18,14.77-14.41,20.29-36.72,25.5-56.11-8.46,3-12.24,12-18.63,18.08-16.46,15.5-41.62,28.8-44,53.58l-20.56-1.63c5.53-6.75,10.4-12.13,12.84-20.69-11,1.87-12.67,11-21.21,16.45-6.47,4.16-17.69,3.94-25.23,4.62,18.7-16.1,23.88-34.68,33.15-56.39,3.64-8.48,9.16-15.91,12.61-24.41-7.43,3.56-12.65,9.35-19,14.5C179,134.77,165,145.05,156,161.68c-4.85,9-4.31,25.42-11.06,32.36-3,3.14-8,4.13-11.88,5.87-8.31,3.72-16.15,8.38-24.13,12.71,1.8-5.79,5.46-12.4,4.92-18.62-.28-3.56-3.55-8.37-7.07-4.4C99.27,198.11,100.26,214,93,223.14c-8.61,10.93-26,15.23-30.3,29.21,11.8-6.2,22-21.68,35.19-24.56,9-2,20.86,4,29.93,5.15-3.67-9.55-10.86-12.4-20.68-12.83a134.39,134.39,0,0,1,13-8.68C148,195.19,154,237,171.33,250.05c15.2,11.38,35.81,11.91,53.94,11.71-4.71-8.5-13.72-13.14-20.21-20.31-11.47-12.75-20.64-28.72-36.45-36.79-6.38-3.27-13.69-3.84-20.6-5.46,9-3.5,23.91-9.37,33.38-5.55,9.84,4,15.72,13,26.49,16.07-2.82-8.16-6.86-13.68-15.13-16.63,11.34-2.59,24,2,35.51,3.33C229.09,238.4,255.94,261.54,296.27,266.5Zm55.62-34.24c-13.06,1.38-34-15.17-43.21-23.78C326.43,209.83,339.54,220.28,351.89,232.26ZM348.2,236c-17.92,5.53-41.54-11.06-47-27.47C317.52,216.44,331.73,228.21,348.2,236Zm-7.94-41c22.39-12.73,39.71-15.39,65.17-15.68-12.2,8.92-31.95,11-46.51,14.39C352.46,195.25,346.6,197.44,340.26,195.05Zm5.65,3.67c23-1.27,44.56-11.71,67-15.7C398.16,196.71,365.37,206.62,345.91,198.72Zm-41.11-3.27c7.53-18.4,28.31-33.83,46.2-41.59C342.55,171,320.7,185.4,304.8,195.45Zm49.87-47.24c-11.11,8.68-24.34,14-35.21,23.63-8.59,7.56-14.08,17.65-22.11,25.57C304.08,166.73,324.51,152.63,354.67,148.21ZM281.21,255.47c-17.91-11.81-33.3-34.09-41.69-53.67C259.14,211.56,272.83,235.86,281.21,255.47Zm0,1.86c-7.07,2.17-14.26-1.61-20.59-5C245.06,244,226.52,218.71,233.9,200,246.49,219.9,259.47,246.38,281.23,257.33Zm-18.1-113.68c-7,16.14-22.47,31.57-36.86,41.5C231.24,167.56,248.65,153.86,263.13,143.65ZM230,185.1c17.25-13.45,28.47-30.83,42.4-47.15C271,153.78,261,168.84,248.59,178.53,243.3,182.66,236.66,186.63,230,185.1Zm-39.82-53.68c-4.55,8.39-9.57,18.57-15.23,28.4a144.07,144.07,0,0,1,20.83-28.47c-4.34,21.54-15.53,47.19-36.69,56.43,4.61-7.82,9.14-16.39,14-24.82-6.28,10.52-13.36,20.35-21.48,26.77C153.38,166.75,169,141.18,190.18,131.42Zm22,124.83c-33.2,10.63-53-27.81-67.78-49.64C172.46,214.57,185.59,245,212.14,256.25Zm-3.82-7.42c-7.77,1.13-13.51-5.88-18.79-11-6.74-6.53-12.62-14.18-19.76-20.31-6.67-5.53-14.93-9.17-21.71-14.69C176,205.38,190.2,231.07,208.32,248.83Z"/><path class="cls-2" d="M15.8,331.8c8.13,18.9,44.91,19.43,47.43-3.74,1.4-13.05-9.16-18-19.67-21.54-3.44-1.16-9.87-2.18-11.56-5.93s3.06-7.2,6.35-7.59c6.16-.72,11.14,2.79,14.64,7.36l9.61-5.51c-7.24-20.29-48.56-17.49-45,7.14,1.67,11.59,14,14.13,23.11,17.58C44.53,321,51,323.64,49,329c-4.16,11.2-17.69.12-23.74-1C21.87,327.3,18.52,330.21,15.8,331.8Z"/><path class="cls-2" d="M335.05,288.82c-7.8-9.48-25.74-9.6-35.35-3C276,302,289.77,353.93,321.9,344.13a30.1,30.1,0,0,0,8.66-3.77C344.45,330.55,345.53,301.58,335.05,288.82Zm-11,41.23c-5.45,6.05-15.21,5.69-19.46-1.41C300,321,299.9,303.7,306.31,297c4.88-5.08,15.59-5.79,19.55.68,4.72,7.69,4.3,25.62-1.81,32.38Z"/><path class="cls-2" d="M280.8,335l-9.38.61a248.65,248.65,0,0,0,1.32-41.82l9.39-.61-.7-10.73-29.58.58.61,9.38,8-.52c.3,13.93-1.95,27.89-1.32,41.82l-9.39.61.61,9.39a186.08,186.08,0,0,0,29.67.76Z"/><path class="cls-2" d="M394,324.11c-1-10.68-10.13-14.26-19-17.51-3.56-1.3-9.55-2.36-11.33-6.19-2-4.29,2.77-6.89,6.33-7.16,6.36-.48,10.81,2.83,14.7,7.38A53,53,0,0,1,395,294.17c-3.46-4.36-6.91-8.72-12.22-10.89-13.05-5.28-34.38-.74-33.65,16.52.45,10.61,9.45,14.8,18.27,17.94,4.24,1.5,10.11,2.9,11.81,7.68,1.93,5.33-2.45,8.33-7.25,8.29-7.11-.06-11.68-3.44-15.93-8.67l-9.48,7.51c3.18,4,6.19,7.81,11,10C372.66,349.33,395.8,344.27,394,324.11Z"/><path class="cls-2" d="M117.73,284.11l-1.54-2.2c-3.36.17-7.37-.2-10.38,1.57-7.38,4.31-9.77,17.1-14.39,24-5.24-11.78-8.83-28.41-24.76-23.67,4.89,7.67,8.15,16.22,11.88,24.48,1.85,4.1,4.71,8,5.57,12.5,1.61,8.28-.66,16.44,2.57,24.44l11.89-1.76C95.38,320.92,106.85,303,117.73,284.11Z"/><path class="cls-2" d="M231.65,311.85c10.28-6.94,13.55-21.46-.22-27-10.16-4-23.1-.88-33.9-1.61l-.27,57.44-.24-.52c.27,1.39.53,2.73.77,4,.52,0,1-.07,1.54-.07,12.13,0,26.29,3.41,37.32-3.31C249.58,333,245.53,315,231.65,311.85Zm-22.48-18.08c4.92.57,12.54-.5,16.68,2.71,8.08,6.3-7.07,13.75-13,9.48C209.61,303.63,209.77,297.35,209.17,293.77Zm19.17,37.85c-4.77,2.9-13.32,1.89-18.72,1.94.81-5.48.19-10.83.45-16.34,5.6,1,13.51-.1,18.33,3.22C232,323,232.36,329.17,228.34,331.62Z"/><path class="cls-2" d="M185,344.81l.83-4.62c-1.18-17.15,2.65-36.76-1.46-53.3-1.33-5.42-8.86-6.42-13.14-3.58-3.32,2.21-5.68,7.2-7.45,10.66-2.89,5.68-5.72,11.09-9.14,16.48-5.51-7.22-9.85-22.37-18.26-26.39-3.67-1.74-8.26-1.14-12.16-.9-1.17,20,2.31,40.53-.16,60.39,4,1.25,7.81,1,12,1.23,2.77-12.57.71-26.36,1-39.16,3.49,6.06,8.45,20.27,16.08,21.91,3.81.83,6.17-2.19,8.13-4.94a134.2,134.2,0,0,0,11.11-20c.41,13.28.6,26.62.14,39.87C176.61,343.53,181,343.59,185,344.81Z"/><path class="cls-2" d="M429.06,333.29a5.82,5.82,0,0,1-4.59-.55c-3.43-2.11-3-7.34-2.94-10.82.24-10-1.31-20.24.41-30l7.1,1.35.95-9c-9.5-2.75-19.7-1.81-29.47-1.29-1.95,8.32,2,9.28,9.15,10.63-3.61,8.14-1.28,19.05-1.33,27.84-.06,6.82.13,11.42-7.19,13-4.19,15.12,17,10.06,26.67,10.66a52.73,52.73,0,0,0,2.61-8.52Z"/><path class="cls-2" d="M471.21,283.61c-9.91-2.72-19.9-2.24-27.08,5.92-12.8,14.56,6.26,26.09,17.54,30.45,3.86,1.46,10.76,3.91,9.51,9.34-3,12.87-19.9-1.25-25.23-.8-3.13.28-6,3.24-8.94,4.82.54.91,1.05,1.79,1.5,2.57,0-.09,0-.18,0-.27a39.42,39.42,0,0,0,30.76,9.81c11.29-1.33,18.89-10.44,16.32-22-2.17-9.69-10.83-12.85-19.12-16-3.3-1.25-8.29-2.32-10.41-5.37-3.28-4.81,3-7.14,6.69-7.53,6.7-.65,9.85,3,14.61,7,2.27-1.71,6.64-4,7.28-7.05C485.93,288.44,475.38,284.75,471.21,283.61Z"/></svg>